<svg xmlns="http://www.w3.org/2000/svg" xmlns:xlink="http://www.w3.org/1999/xlink" xmlns:inkscape="http://www.inkscape.org/namespaces/inkscape" version="1.1" width="112.929" height="149.965" viewBox="0 0 112.929 149.965">
<defs>
<clipPath id="clip_1">
<path transform="matrix(1,0,0,-1,-117.8419,362.8656)" d="M117.8419 212.9006H230.7709V362.8656H117.8419Z" clip-rule="evenodd"/>
</clipPath>
<clipPath id="clip_2">
<path transform="matrix(1,0,0,-1,-117.8419,362.8656)" d="M0 0H841.89V595.276H0Z"/>
</clipPath>
<clipPath id="clip_3">
<path transform="matrix(1,0,0,-1,-117.8419,362.8656)" d="M169.945-.5H342.89V595.776H169.945Z"/>
</clipPath>
<path id="font_4_12" d="M.4189911 .7080078H.31599427L.034988405 .25509645V.16210938H.33499146V0H.4189911V.16210938H.5209961V.24009705H.4189911V.7080078M.33499146 .24009705H.10699463L.33299256 .6100006H.33499146V.24009705Z"/>
<path id="font_4_8" d="M.037994386 .3540039C.037994386 .19314575 .08299255-.01171875 .27799989-.01171875 .47299195-.01171875 .5179901 .19314575 .5179901 .3540039 .5179901 .5148468 .47299195 .71972659 .27799989 .71972659 .08299255 .71972659 .037994386 .5148468 .037994386 .3540039M.12199402 .3540039C.12199402 .457901 .13798523 .64772036 .27799989 .64772036 .41799928 .64772036 .43399049 .457901 .43399049 .3540039 .43399049 .25009156 .41799928 .060272218 .27799989 .060272218 .13798523 .060272218 .12199402 .25009156 .12199402 .3540039Z"/>
<path id="font_4_30" d="M.08799744 0H.49598695V.07798767H.17199707V.7080078H.08799744V0Z"/>
<path id="font_4_1" d=""/>
<path id="font_4_5" d="M.04399109 .20410156H.2889862V.27609254H.04399109V.20410156Z"/>
<path id="font_4_11" d="M.20399475 .3359375H.22999573C.31698609 .3359375 .40899659 .30296327 .40899659 .19909668 .40899659 .11720276 .34498597 .060272218 .2649994 .060272218 .18699646 .060272218 .1459961 .0892334 .12199402 .16514588L.036987306 .13717652C.07299805 .03227234 .1579895-.01171875 .2649994-.01171875 .3909912-.01171875 .49899293 .058273317 .49899293 .19309998 .49899293 .28199769 .44400025 .3559265 .35398866 .3709259V.3729248C.4249878 .39492799 .47499085 .46087647 .47499085 .53482058 .47499085 .656723 .3769989 .71972659 .2639923 .71972659 .17399597 .71972659 .09298706 .679718 .05899048 .59976199L.13999939 .5687866C.16499329 .6207428 .21099854 .64772036 .269989 .64772036 .34098817 .64772036 .3909912 .6027527 .3909912 .53082278 .3909912 .42391969 .2999878 .40792848 .22999573 .40792848H.20399475V.3359375Z"/>
<path id="font_4_39" d="M.21299744 0H.30499269L.48098756 .6000061H.48298646L.6579895 0H.7489929L.95700076 .7080078H.86898806L.7049866 .11999512H.7029877L.5299988 .7080078H.43598939L.2619934 .11999512H.2599945L.09899902 .7080078H.005996704L.21299744 0Z"/>
<path id="font_4_13" d="M.47399903 .7080078H.102996829L.09599304 .34007264C.13798523 .36506654 .19198609 .38404847 .23999024 .38404847 .33898927 .38404847 .4149933 .3270874 .4149933 .22315979 .4149933 .12522888 .34799195 .060272218 .2630005 .060272218 .20298767 .060272218 .15499878 .09625244 .1309967 .1492157L.04699707 .11723328C.084991458 .039276124 .14898682-.01171875 .2559967-.01171875 .3939972-.01171875 .49899293 .08226013 .49899293 .22315979 .49899293 .35606385 .40899659 .4560547 .272995 .4560547 .24398804 .4560547 .20899964 .45204164 .18199158 .43904115L.18499756 .6300049H.47399903V.7080078Z"/>
<path id="font_4_27" d="M.08799744 0H.17199707V.33007813H.5499878V0H.6339874V.7080078H.5499878V.4080658H.17199707V.7080078H.08799744V0Z"/>
<path id="font_4_9" d="M.3600006 .7080078H.2869873L.09700012 .55400088 .14698792 .49299623 .27398683 .6000061H.27598573V0H.3600006V.7080078Z"/>
<path id="font_4_14" d="M.3939972 .7080078H.29599L.10798645 .40934754C.069992069 .3483429 .040985109 .29232789 .040985109 .21031189 .040985109 .072280887 .14399719-.01171875 .27799989-.01171875 .4119873-.01171875 .5149994 .072280887 .5149994 .21031189 .5149994 .3423462 .42399598 .43234254 .30099488 .43234254 .27198792 .43234254 .23199463 .42634584 .20599365 .41134645L.20399475 .41334535 .3939972 .7080078M.27799989 .36035157C.36299134 .36035157 .43099977 .30233766 .43099977 .21031189 .43099977 .11828613 .36299134 .060272218 .27799989 .060272218 .19299317 .060272218 .125 .11828613 .125 .21031189 .125 .30233766 .19299317 .36035157 .27799989 .36035157Z"/>
<path id="font_4_57" d="M.050994874 .56399539H.12199402L.2649994 .7080078H.15499878L.050994874 .56399539Z"/>
<path id="font_4_10" d="M.049987794 0H.5059967V.07798767H.14498902V.07998657L.36299134 .28489686C.43399049 .35186769 .5009918 .41482545 .5009918 .52778628 .5009918 .65371707 .4019928 .71972659 .2849884 .71972659 .17098999 .71972659 .08198547 .6587219 .06298828 .5427704L.1539917 .5347748C.16699219 .6027374 .21699524 .64772036 .28799439 .64772036 .35899354 .64772036 .4169922 .6017456 .4169922 .52778628 .4169922 .45881654 .38398744 .42082215 .31698609 .35586549L.049987794 .09597778V0Z"/>
<clipPath id="clip_5">
<path transform="matrix(1,0,0,-1,-117.8419,362.8656)" d="M341.89 .5H841.89V594.775H341.89Z"/>
</clipPath>
<path id="font_7_16" d="M.5289917 .6515808C.46899415 .7045746 .3919983 .72558596 .31199647 .72558596 .17298889 .72558596 .041992189 .6465759 .041992189 .4957428 .041992189 .26016236 .37399293 .3300476 .37399293 .2002716 .37399293 .15037537 .31698609 .12641907 .2659912 .12641907 .21398926 .12641907 .1619873 .15136719 .12998963 .19329834L.018997193 .07141113C.085998538 .009414673 .1659851-.017578125 .25698854-.017578125 .40299989-.017578125 .5299988 .057418825 .5299988 .21525574 .5299988 .46279908 .20399475 .37994386 .20399475 .50871279 .20399475 .561615 .2649994 .5815735 .30899049 .5815735 .34700013 .5815735 .39698792 .5666046 .42199708 .53466799L.5289917 .6515808Z"/>
<path id="font_7_10" d="M.069992069 0H.22599793V.7080078H.069992069V0Z"/>
<path id="font_7_5" d="M.07199097 0H.32699586C.5379944 0 .72499087 .12298584 .72499087 .35198976 .72499087 .61099246 .5339966 .7080078 .30599977 .7080078H.07199097V0M.22799683 .56399539H.31999208C.45199586 .56399539 .5629883 .49899293 .5629883 .3600006 .5629883 .19898987 .45399476 .14399719 .30899049 .14399719H.22799683V.56399539Z"/>
<path id="font_7_6" d="M.07798767 0H.57699587V.14399719H.23399353V.28808595H.54100039V.43208314H.23399353V.56399539H.5589905V.7080078H.07798767V0Z"/>
<path id="font_7_1" d=""/>
<path id="font_7_17" d="M.20899964 0H.36499024V.5700073H.5669861V.7080078H.0069885256V.5700073H.20899964V0Z"/>
<path id="font_7_2" d="M-.0010070801 0H.17098999L.22999573 .15022278H.5049896L.56599429 0H.74198916L.43399049 .7080078H.30499269L-.0010070801 0M.45199586 .28222657H.2789917L.36499024 .5021057 .45199586 .28222657Z"/>
<path id="font_7_3" d="M.07199097 0H.3619995C.48799134 0 .6279907 .04899597 .6279907 .19697571 .6279907 .2889557 .56599429 .35795594 .47299195 .3699646V.3719635C.54599 .3949585 .59498599 .4489746 .59498599 .5279846 .59498599 .68200686 .45999146 .7080078 .33599855 .7080078H.07199097V0M.22799683 .576004H.33399964C.3829956 .576004 .43899537 .5609894 .43899537 .50198367 .43899537 .44496156 .3889923 .42495729 .34098817 .42495729H.22799683V.576004M.22799683 .29296876H.34599305C.39698792 .29296876 .47200013 .28196717 .47200013 .21498108 .47200013 .15298462 .4169922 .13198853 .36799623 .13198853H.22799683V.29296876Z"/>
<path id="font_7_11" d="M.07798767 0H.522995V.14399719H.23399353V.7080078H.07798767V0Z"/>
<path id="font_4_20" d="M.005996704 0H.100997928L.17399597 .1739502H.5279999L.59999087 0H.69799807L.39698792 .7080078H.31799317L.005996704 0M.49598695 .25195313H.20698548L.35398866 .59999087H.35598756L.49598695 .25195313Z"/>
<path id="font_4_36" d="M.49299623 .6425781C.44099427 .70358279 .37399293 .72558596 .29499818 .72558596 .17098999 .72558596 .053985597 .6575775 .053985597 .52175906 .053985597 .4039154 .12998963 .35998536 .22999573 .32702638 .35598756 .2850952 .4149933 .27011109 .4149933 .1832428 .4149933 .10235596 .33299256 .060409547 .26098634 .060409547 .19999695 .060409547 .13999939 .087371829 .10998535 .13929749L.037994386 .0803833C.085998538 .009414673 .17399597-.017578125 .2559967-.017578125 .38398744-.017578125 .5049896 .048416139 .5049896 .18922425 .5049896 .32803346 .40299989 .36398316 .29299928 .39892579 .17999268 .4348755 .14399719 .46383668 .14399719 .52874758 .14399719 .6126251 .22099304 .647583 .29499818 .647583 .34599305 .647583 .3959961 .62760928 .42399598 .5826721L.49299623 .6425781Z"/>
<path id="font_4_37" d="M.5629883 .7080078H.010986328V.6300049H.24499512V0H.32899476V.6300049H.5629883V.7080078Z"/>
<path id="font_4_26" d="M.6899872 .39634706H.44299317V.31835938H.60598757V.10140991C.55400088 .075408939 .4869995 .060409547 .42999269 .060409547 .2559967 .060409547 .13699341 .18537903 .13699341 .35435487 .13699341 .5259552 .2599945 .647583 .42199708 .647583 .49398805 .647583 .5669861 .6186676 .61499026 .5668335L.6779938 .6326294C.61099246 .7005768 .5209961 .72558596 .42799378 .72558596 .21598816 .72558596 .04699707 .5767975 .04699707 .35435487 .04699707 .13240052 .20498657-.017578125 .4249878-.017578125 .5169983-.017578125 .60899356 .0034179688 .6899872 .048416139V.39634706Z"/>
</defs>
<g>
<g clip-path="url(#clip_1)">
<g clip-path="url(#clip_2)">
<g opacity=".5">
<g clip-path="url(#clip_3)">

</g>
</g>
</g>



<use data-text="4" xlink:href="#font_4_12" transform="matrix(12,0,0,-12,9.309196,185.5596)" fill="currentColor"/>
<use data-text="0" xlink:href="#font_4_8" transform="matrix(12,0,0,-12,15.981201,185.5596)" fill="currentColor"/>
<use data-text="L" xlink:href="#font_4_30" transform="matrix(12,0,0,-12,22.653199,185.5596)" fill="currentColor"/>
<use data-text=" " xlink:href="#font_4_1" transform="matrix(12,0,0,-12,28.653199,185.5596)" fill="currentColor"/>
<use data-text="-" xlink:href="#font_4_5" transform="matrix(12,0,0,-12,31.989197,185.5596)" fill="currentColor"/>
<use data-text=" " xlink:href="#font_4_1" transform="matrix(12,0,0,-12,35.9852,185.5596)" fill="currentColor"/>
<use data-text="3" xlink:href="#font_4_11" transform="matrix(12,0,0,-12,39.321199,185.5596)" fill="currentColor"/>
<use data-text="0" xlink:href="#font_4_8" transform="matrix(12,0,0,-12,45.993196,185.5596)" fill="currentColor"/>
<use data-text="W" xlink:href="#font_4_39" transform="matrix(12,0,0,-12,52.66519,185.5596)" fill="currentColor"/>
<use data-text=" " xlink:href="#font_4_1" transform="matrix(12,0,0,-12,64.22119,185.5596)" fill="currentColor"/>
<use data-text="-" xlink:href="#font_4_5" transform="matrix(12,0,0,-12,67.55719,185.5596)" fill="currentColor"/>
<use data-text=" " xlink:href="#font_4_1" transform="matrix(12,0,0,-12,71.55319,185.5596)" fill="currentColor"/>
<use data-text="5" xlink:href="#font_4_13" transform="matrix(12,0,0,-12,74.88919,185.5596)" fill="currentColor"/>
<use data-text="0" xlink:href="#font_4_8" transform="matrix(12,0,0,-12,81.56119,185.5596)" fill="currentColor"/>
<use data-text="H" xlink:href="#font_4_27" transform="matrix(12,0,0,-12,88.233188,185.5596)" fill="currentColor"/>
<use data-text="1" xlink:href="#font_4_9" transform="matrix(12,0,0,-12,.6694946,199.9596)" fill="currentColor"/>
<use data-text="6" xlink:href="#font_4_14" transform="matrix(12,0,0,-12,7.3414919,199.9596)" fill="currentColor"/>
<use data-text="&#x00b4;" xlink:href="#font_4_57" transform="matrix(12,0,0,-12,14.013489,199.9596)" fill="currentColor"/>
<use data-text="&#x00b4;" xlink:href="#font_4_57" transform="matrix(12,0,0,-12,16.893494,199.9596)" fill="currentColor"/>
<use data-text="L" xlink:href="#font_4_30" transform="matrix(12,0,0,-12,19.773499,199.9596)" fill="currentColor"/>
<use data-text=" " xlink:href="#font_4_1" transform="matrix(12,0,0,-12,25.773499,199.9596)" fill="currentColor"/>
<use data-text="-" xlink:href="#font_4_5" transform="matrix(12,0,0,-12,29.109498,199.9596)" fill="currentColor"/>
<use data-text=" " xlink:href="#font_4_1" transform="matrix(12,0,0,-12,33.1055,199.9596)" fill="currentColor"/>
<use data-text="1" xlink:href="#font_4_9" transform="matrix(12,0,0,-12,36.441499,199.9596)" fill="currentColor"/>
<use data-text="2" xlink:href="#font_4_10" transform="matrix(12,0,0,-12,43.113496,199.9596)" fill="currentColor"/>
<use data-text="&#x00b4;" xlink:href="#font_4_57" transform="matrix(12,0,0,-12,49.785493,199.9596)" fill="currentColor"/>
<use data-text="&#x00b4;" xlink:href="#font_4_57" transform="matrix(12,0,0,-12,52.665498,199.9596)" fill="currentColor"/>
<use data-text="W" xlink:href="#font_4_39" transform="matrix(12,0,0,-12,55.5455,199.9596)" fill="currentColor"/>
<use data-text=" " xlink:href="#font_4_1" transform="matrix(12,0,0,-12,67.1015,199.9596)" fill="currentColor"/>
<use data-text="-" xlink:href="#font_4_5" transform="matrix(12,0,0,-12,70.4375,199.9596)" fill="currentColor"/>
<use data-text=" " xlink:href="#font_4_1" transform="matrix(12,0,0,-12,74.4335,199.9596)" fill="currentColor"/>
<use data-text="2" xlink:href="#font_4_10" transform="matrix(12,0,0,-12,77.7695,199.9596)" fill="currentColor"/>
<use data-text="0" xlink:href="#font_4_8" transform="matrix(12,0,0,-12,84.4415,199.9596)" fill="currentColor"/>
<use data-text="&#x00b4;" xlink:href="#font_4_57" transform="matrix(12,0,0,-12,91.113498,199.9596)" fill="currentColor"/>
<use data-text="&#x00b4;" xlink:href="#font_4_57" transform="matrix(12,0,0,-12,93.9935,199.9596)" fill="currentColor"/>
<use data-text="H" xlink:href="#font_4_27" transform="matrix(12,0,0,-12,96.873508,199.9596)" fill="currentColor"/>
<g clip-path="url(#clip_5)">
<g transform="matrix(.45487906,0,0,.45487906,222.71086,-233.28635)">

</g>
</g>
<path transform="matrix(1,0,0,-1,-29.3852,163.7318)" stroke-width="1" stroke-linecap="butt" stroke-miterlimit="4" stroke-linejoin="miter" fill="none" stroke="currentColor" d="M0 0H164.976"/>
<use data-text="S" xlink:href="#font_7_16" transform="matrix(30,0,0,-30,-81.8419,-173.7301)" fill="currentColor"/>
<use data-text="I" xlink:href="#font_7_10" transform="matrix(30,0,0,-30,-64.6219,-173.7301)" fill="currentColor"/>
<use data-text="D" xlink:href="#font_7_5" transform="matrix(30,0,0,-30,-55.7419,-173.7301)" fill="currentColor"/>
<use data-text="E" xlink:href="#font_7_6" transform="matrix(30,0,0,-30,-32.9719,-173.7301)" fill="currentColor"/>
<use data-text=" " xlink:href="#font_7_1" transform="matrix(30,0,0,-30,-14.071899,-173.7301)" fill="currentColor"/>
<use data-text="T" xlink:href="#font_7_17" transform="matrix(30,0,0,-30,-5.191902,-173.7301)" fill="currentColor"/>
<use data-text="A" xlink:href="#font_7_2" transform="matrix(30,0,0,-30,9.265091,-173.7301)" fill="currentColor"/>
<use data-text="B" xlink:href="#font_7_3" transform="matrix(30,0,0,-30,31.495087,-173.7301)" fill="currentColor"/>
<use data-text="L" xlink:href="#font_7_11" transform="matrix(30,0,0,-30,50.93509,-173.7301)" fill="currentColor"/>
<use data-text="E" xlink:href="#font_7_6" transform="matrix(30,0,0,-30,67.04509,-173.7301)" fill="currentColor"/>
<use data-text="H" xlink:href="#font_4_27" transform="matrix(30,0,0,-30,-81.8419,-137.7301)" fill="currentColor"/>
<use data-text="A" xlink:href="#font_4_20" transform="matrix(30,0,0,-30,-60.1819,-137.7301)" fill="currentColor"/>
<use data-text="S" xlink:href="#font_4_36" transform="matrix(30,0,0,-30,-39.061899,-137.7301)" fill="currentColor"/>
<use data-text="H" xlink:href="#font_4_27" transform="matrix(30,0,0,-30,-22.381897,-137.7301)" fill="currentColor"/>
<use data-text="T" xlink:href="#font_4_37" transform="matrix(30,0,0,-30,-.7218933,-137.7301)" fill="currentColor"/>
<use data-text="A" xlink:href="#font_4_20" transform="matrix(30,0,0,-30,13.738113,-137.7301)" fill="currentColor"/>
<use data-text="G" xlink:href="#font_4_26" transform="matrix(30,0,0,-30,34.85811,-137.7301)" fill="currentColor"/>
<path transform="matrix(1,0,0,-1,12.563004,114.8342)" stroke-width=".2" stroke-linecap="round" stroke-linejoin="round" fill="none" stroke="currentColor" d="M0 0 1.254-.724M1.254-.724 7.573 2.922M48.919-28.221 50.173-28.945M50.173-28.945 87.803-7.236M50.173 50.599 87.803 72.307M50.173 49.151V50.599M50.173-21.654V-20.207M50.173-20.207 87.803 1.501M1.254 78.82 38.884 100.528M1.254 8.014 38.884 29.722M87.803 79.598 50.173 57.889M87.803-7.236V-7.182M87.803 1.501V63.624M87.803 72.307V79.598M86.548 80.321 87.803 79.598M48.919 58.613 50.173 57.889M1.254 78.82V77.372M80.23 76.676 38.884 100.528M1.254 78.82 48.919 51.322M48.919 51.322V49.875M1.254 8.014V6.567M48.919 23.933 38.884 29.722M1.254 8.014 48.919-19.483M48.919-19.483V-20.931M38.884 107.819 1.254 86.11M38.884 29.722V55.664M38.884 100.528V107.819M0 86.834 37.63 108.542M37.63 108.542 38.884 107.819M0 86.834 1.254 86.11M50.173 49.151 56.445 45.533M94.074 68.689 87.803 72.307M94.074 68.689V67.242M50.173 50.599 56.445 46.981M56.445 46.981V45.533M56.445 46.981 94.074 68.689M-6.272 10.908 0 7.29M0 15.974-6.272 12.356M-6.272 12.356V10.908M-6.272 12.356 0 8.738M0 8.738V7.29M-6.272 81.714 0 78.096M0 86.779-6.272 83.161M-6.272 83.161V81.714M-6.272 83.161 0 79.543M0 79.543V78.096M50.173-21.654 56.445-25.272M94.074-2.117 87.803 1.501M94.074-2.117V-3.564M50.173-20.207 56.445-23.825M56.445-23.825V-25.272M56.445-23.825 94.074-2.117M50.173-21.654V-28.945M48.919 58.613 80.23 76.676M80.23 76.676 86.548 80.321M1.254 77.372 38.884 55.664M38.884 55.664 48.919 49.875M1.254 6.567 7.573 2.922M7.573 2.922 48.919-20.931M1.254 86.11V78.82M56.445 45.533 87.803 63.624M87.803 63.624 94.074 67.242M56.445-25.272 87.803-7.182M87.803-7.182 94.074-3.564M48.919-28.221V-20.931M48.919-19.483V23.933M0 0V7.29M50.173 57.889V50.599M48.919 23.933V49.875M1.254 77.372V8.014M1.254 6.567V-.724M0 8.738V15.974M0 15.974V78.096M50.173 49.151V-20.207M48.919 51.322V58.613M0 79.543V86.779M0 86.779V86.834"/>
<path transform="matrix(1,0,0,-1,51.418,6.7269899)" stroke-width="1.68" stroke-linecap="round" stroke-linejoin="round" fill="none" stroke="currentColor" d="M0 0-1.262 .727-45.418-24.762V-26.299L-39.11-29.849V-92.235L-45.418-95.869V-97.322L-39.11-100.955V-108.277L-37.849-109.003-31.493-105.343 10.093-129.296V-136.618L11.17-137.238 55.511-111.856V-110.402L49.203-106.769V-44.383L55.511-40.749V-39.296L49.203-35.662V-28.341L47.941-27.614 41.586-31.275 0-7.322V0Z"/>
</g>
</g>
</svg>
